<mxfile host="app.diagrams.net" agent="Mozilla/5.0 (Windows NT 10.0; Win64; x64) AppleWebKit/537.36 (KHTML, like Gecko) Chrome/128.0.0.0 Safari/537.36" version="24.7.12">
  <diagram name="PÃ¡gina-1" id="cqxxJCOE727uLSmG-TpM">
    <mxGraphModel dx="1232" dy="1131" grid="1" gridSize="10" guides="1" tooltips="1" connect="1" arrows="1" fold="1" page="1" pageScale="1" pageWidth="827" pageHeight="1169" math="0" shadow="0">
      <root>
        <mxCell id="0" />
        <mxCell id="1" parent="0" />
        <mxCell id="1OZSBCCMR_6fucO5a3IN-18" style="edgeStyle=orthogonalEdgeStyle;rounded=0;orthogonalLoop=1;jettySize=auto;html=1;entryX=0.533;entryY=0.013;entryDx=0;entryDy=0;entryPerimeter=0;" edge="1" parent="1" source="1OZSBCCMR_6fucO5a3IN-5" target="1OZSBCCMR_6fucO5a3IN-1">
          <mxGeometry relative="1" as="geometry">
            <Array as="points">
              <mxPoint x="208" y="540" />
              <mxPoint x="470" y="540" />
            </Array>
          </mxGeometry>
        </mxCell>
        <mxCell id="1OZSBCCMR_6fucO5a3IN-15" style="edgeStyle=orthogonalEdgeStyle;rounded=0;orthogonalLoop=1;jettySize=auto;html=1;entryX=0.007;entryY=0.518;entryDx=0;entryDy=0;entryPerimeter=0;exitX=0.486;exitY=1;exitDx=0;exitDy=0;exitPerimeter=0;" edge="1" parent="1" source="1OZSBCCMR_6fucO5a3IN-5" target="1OZSBCCMR_6fucO5a3IN-11">
          <mxGeometry relative="1" as="geometry" />
        </mxCell>
        <mxCell id="1OZSBCCMR_6fucO5a3IN-1" value="Airflow&lt;div style=&quot;font-size: 14px;&quot;&gt;Database&lt;/div&gt;" style="image;aspect=fixed;html=1;points=[];align=center;fontSize=14;image=img/lib/azure2/databases/Azure_Database_PostgreSQL_Server.svg;fontStyle=1" vertex="1" parent="1">
          <mxGeometry x="438.05" y="570" width="60" height="80" as="geometry" />
        </mxCell>
        <mxCell id="1OZSBCCMR_6fucO5a3IN-2" value="Redis&lt;div style=&quot;font-size: 14px;&quot;&gt;Queue&lt;/div&gt;" style="image;sketch=0;aspect=fixed;html=1;points=[];align=center;fontSize=14;image=img/lib/mscae/Cache_Redis_Product.svg;fontStyle=1" vertex="1" parent="1">
          <mxGeometry x="296.98" y="250" width="82.14" height="69" as="geometry" />
        </mxCell>
        <mxCell id="1OZSBCCMR_6fucO5a3IN-5" value="WebServer" style="image;sketch=0;aspect=fixed;html=1;points=[];align=center;fontSize=14;image=img/lib/mscae/Virtual_Machine_2.svg;fontStyle=1" vertex="1" parent="1">
          <mxGeometry x="170" y="410" width="76.09" height="70" as="geometry" />
        </mxCell>
        <mxCell id="1OZSBCCMR_6fucO5a3IN-6" value="CLI" style="image;sketch=0;aspect=fixed;html=1;points=[];align=center;fontSize=14;image=img/lib/mscae/Virtual_Machine_2.svg;fontStyle=1" vertex="1" parent="1">
          <mxGeometry x="690" y="410" width="76.09" height="70" as="geometry" />
        </mxCell>
        <mxCell id="1OZSBCCMR_6fucO5a3IN-8" value="Triggerer" style="image;sketch=0;aspect=fixed;html=1;points=[];align=center;fontSize=14;image=img/lib/mscae/Virtual_Machine_2.svg;fontStyle=1" vertex="1" parent="1">
          <mxGeometry x="430" y="410" width="76.09" height="70" as="geometry" />
        </mxCell>
        <mxCell id="1OZSBCCMR_6fucO5a3IN-26" style="edgeStyle=orthogonalEdgeStyle;rounded=0;orthogonalLoop=1;jettySize=auto;html=1;" edge="1" parent="1" source="1OZSBCCMR_6fucO5a3IN-9" target="1OZSBCCMR_6fucO5a3IN-8">
          <mxGeometry relative="1" as="geometry" />
        </mxCell>
        <mxCell id="1OZSBCCMR_6fucO5a3IN-9" value="Scheduler" style="image;sketch=0;aspect=fixed;html=1;points=[];align=center;fontSize=14;image=img/lib/mscae/Virtual_Machine_2.svg;fontStyle=1" vertex="1" parent="1">
          <mxGeometry x="300" y="410" width="76.09" height="70" as="geometry" />
        </mxCell>
        <mxCell id="1OZSBCCMR_6fucO5a3IN-11" value="DAG&lt;br style=&quot;font-size: 14px;&quot;&gt;Directory" style="image;aspect=fixed;html=1;points=[];align=center;fontSize=14;image=img/lib/azure2/general/Folder_Blank.svg;fontStyle=1" vertex="1" parent="1">
          <mxGeometry x="303.55" y="570" width="69" height="56.00000000000001" as="geometry" />
        </mxCell>
        <mxCell id="1OZSBCCMR_6fucO5a3IN-12" value="User" style="shadow=0;dashed=0;html=1;strokeColor=none;fillColor=#4495D1;labelPosition=center;verticalLabelPosition=bottom;verticalAlign=top;align=center;outlineConnect=0;shape=mxgraph.veeam.2d.user;fontSize=14;fontStyle=1" vertex="1" parent="1">
          <mxGeometry x="60" y="416" width="32" height="58" as="geometry" />
        </mxCell>
        <mxCell id="1OZSBCCMR_6fucO5a3IN-13" style="edgeStyle=orthogonalEdgeStyle;rounded=0;orthogonalLoop=1;jettySize=auto;html=1;entryX=0.026;entryY=0.5;entryDx=0;entryDy=0;entryPerimeter=0;" edge="1" parent="1" source="1OZSBCCMR_6fucO5a3IN-12" target="1OZSBCCMR_6fucO5a3IN-5">
          <mxGeometry relative="1" as="geometry" />
        </mxCell>
        <mxCell id="1OZSBCCMR_6fucO5a3IN-19" style="edgeStyle=orthogonalEdgeStyle;rounded=0;orthogonalLoop=1;jettySize=auto;html=1;entryX=0.499;entryY=0.014;entryDx=0;entryDy=0;entryPerimeter=0;" edge="1" parent="1" source="1OZSBCCMR_6fucO5a3IN-10" target="1OZSBCCMR_6fucO5a3IN-8">
          <mxGeometry relative="1" as="geometry" />
        </mxCell>
        <mxCell id="1OZSBCCMR_6fucO5a3IN-20" style="edgeStyle=orthogonalEdgeStyle;rounded=0;orthogonalLoop=1;jettySize=auto;html=1;entryX=0.499;entryY=0;entryDx=0;entryDy=0;entryPerimeter=0;" edge="1" parent="1" source="1OZSBCCMR_6fucO5a3IN-10" target="1OZSBCCMR_6fucO5a3IN-5">
          <mxGeometry relative="1" as="geometry">
            <Array as="points">
              <mxPoint x="468" y="370" />
              <mxPoint x="208" y="370" />
            </Array>
          </mxGeometry>
        </mxCell>
        <mxCell id="1OZSBCCMR_6fucO5a3IN-21" style="edgeStyle=orthogonalEdgeStyle;rounded=0;orthogonalLoop=1;jettySize=auto;html=1;entryX=0.526;entryY=0.014;entryDx=0;entryDy=0;entryPerimeter=0;" edge="1" parent="1" source="1OZSBCCMR_6fucO5a3IN-10" target="1OZSBCCMR_6fucO5a3IN-7">
          <mxGeometry relative="1" as="geometry">
            <Array as="points">
              <mxPoint x="468" y="370" />
              <mxPoint x="600" y="370" />
            </Array>
          </mxGeometry>
        </mxCell>
        <mxCell id="1OZSBCCMR_6fucO5a3IN-22" style="edgeStyle=orthogonalEdgeStyle;rounded=0;orthogonalLoop=1;jettySize=auto;html=1;entryX=0.499;entryY=0.014;entryDx=0;entryDy=0;entryPerimeter=0;" edge="1" parent="1" source="1OZSBCCMR_6fucO5a3IN-10" target="1OZSBCCMR_6fucO5a3IN-6">
          <mxGeometry relative="1" as="geometry">
            <Array as="points">
              <mxPoint x="468" y="370" />
              <mxPoint x="728" y="370" />
            </Array>
          </mxGeometry>
        </mxCell>
        <mxCell id="1OZSBCCMR_6fucO5a3IN-23" style="edgeStyle=orthogonalEdgeStyle;rounded=0;orthogonalLoop=1;jettySize=auto;html=1;entryX=0.486;entryY=0.029;entryDx=0;entryDy=0;entryPerimeter=0;" edge="1" parent="1" source="1OZSBCCMR_6fucO5a3IN-10" target="1OZSBCCMR_6fucO5a3IN-9">
          <mxGeometry relative="1" as="geometry">
            <Array as="points">
              <mxPoint x="468" y="370" />
              <mxPoint x="337" y="370" />
            </Array>
          </mxGeometry>
        </mxCell>
        <mxCell id="1OZSBCCMR_6fucO5a3IN-24" style="edgeStyle=orthogonalEdgeStyle;rounded=0;orthogonalLoop=1;jettySize=auto;html=1;entryX=1.011;entryY=0.493;entryDx=0;entryDy=0;entryPerimeter=0;" edge="1" parent="1" source="1OZSBCCMR_6fucO5a3IN-10" target="1OZSBCCMR_6fucO5a3IN-2">
          <mxGeometry relative="1" as="geometry" />
        </mxCell>
        <mxCell id="1OZSBCCMR_6fucO5a3IN-25" style="edgeStyle=orthogonalEdgeStyle;rounded=0;orthogonalLoop=1;jettySize=auto;html=1;entryX=1.033;entryY=0.488;entryDx=0;entryDy=0;entryPerimeter=0;" edge="1" parent="1" source="1OZSBCCMR_6fucO5a3IN-10" target="1OZSBCCMR_6fucO5a3IN-1">
          <mxGeometry relative="1" as="geometry">
            <Array as="points">
              <mxPoint x="530" y="284" />
              <mxPoint x="530" y="609" />
            </Array>
          </mxGeometry>
        </mxCell>
        <mxCell id="1OZSBCCMR_6fucO5a3IN-10" value="Flower&lt;div&gt;Monitor&lt;/div&gt;" style="image;sketch=0;aspect=fixed;html=1;points=[];align=center;fontSize=14;image=img/lib/mscae/Virtual_Machine_2.svg;fontStyle=1" vertex="1" parent="1">
          <mxGeometry x="430" y="249" width="76.09" height="70" as="geometry" />
        </mxCell>
        <mxCell id="1OZSBCCMR_6fucO5a3IN-27" style="edgeStyle=orthogonalEdgeStyle;rounded=0;orthogonalLoop=1;jettySize=auto;html=1;entryX=0.026;entryY=0.5;entryDx=0;entryDy=0;entryPerimeter=0;" edge="1" parent="1" source="1OZSBCCMR_6fucO5a3IN-8" target="1OZSBCCMR_6fucO5a3IN-7">
          <mxGeometry relative="1" as="geometry" />
        </mxCell>
        <mxCell id="1OZSBCCMR_6fucO5a3IN-28" style="edgeStyle=orthogonalEdgeStyle;rounded=0;orthogonalLoop=1;jettySize=auto;html=1;entryX=1.051;entryY=0.5;entryDx=0;entryDy=0;entryPerimeter=0;startArrow=classic;startFill=1;" edge="1" parent="1" source="1OZSBCCMR_6fucO5a3IN-6" target="1OZSBCCMR_6fucO5a3IN-7">
          <mxGeometry relative="1" as="geometry" />
        </mxCell>
        <mxCell id="1OZSBCCMR_6fucO5a3IN-29" style="edgeStyle=orthogonalEdgeStyle;rounded=0;orthogonalLoop=1;jettySize=auto;html=1;entryX=0.513;entryY=1.057;entryDx=0;entryDy=0;entryPerimeter=0;" edge="1" parent="1" source="1OZSBCCMR_6fucO5a3IN-5" target="1OZSBCCMR_6fucO5a3IN-7">
          <mxGeometry relative="1" as="geometry">
            <Array as="points">
              <mxPoint x="208" y="540" />
              <mxPoint x="599" y="540" />
            </Array>
          </mxGeometry>
        </mxCell>
        <mxCell id="1OZSBCCMR_6fucO5a3IN-7" value="Worker" style="image;sketch=0;aspect=fixed;html=1;points=[];align=center;fontSize=14;image=img/lib/mscae/Virtual_Machine_2.svg;fontStyle=1" vertex="1" parent="1">
          <mxGeometry x="560" y="410" width="76.09" height="70" as="geometry" />
        </mxCell>
      </root>
    </mxGraphModel>
  </diagram>
</mxfile>
